HIERARCHY
ROOT Hips
{
	OFFSET	0.00	0.00	0.00
	CHANNELS 6 Xposition Yposition Zposition Zrotation Xrotation Yrotation
	JOINT LeftUpLeg
	{
		OFFSET	 0.126116	-0.065224	 0.014019
		CHANNELS 3 Zrotation Xrotation Yrotation
		JOINT LeftLeg
		{
			OFFSET	 0.000000	 0.569914	 0.000000
			CHANNELS 3 Zrotation Xrotation Yrotation
			JOINT LeftFoot
			{
				OFFSET	 0.000000	 0.544423	 0.000000
				CHANNELS 3 Zrotation Xrotation Yrotation
				JOINT LeftToeBase
				{
					OFFSET	 0.000000	 0.207117	 0.000000
					CHANNELS 3 Zrotation Xrotation Yrotation
					End Site
					{
						OFFSET	 0.000000	 0.207117	 0.000000
					}
				}
			}
		}
	}
	JOINT RightUpLeg
	{
		OFFSET	-0.124023	-0.065224	 0.008373
		CHANNELS 3 Zrotation Xrotation Yrotation
		JOINT RightLeg
		{
			OFFSET	 0.000000	 0.570047	 0.000000
			CHANNELS 3 Zrotation Xrotation Yrotation
			JOINT RightFoot
			{
				OFFSET	 0.000000	 0.544354	 0.000000
				CHANNELS 3 Zrotation Xrotation Yrotation
				JOINT RightToeBase
				{
					OFFSET	 0.000000	 0.207540	 0.000000
					CHANNELS 3 Zrotation Xrotation Yrotation
					End Site
					{
						OFFSET	 0.000000	 0.207540	 0.000000
					}
				}
			}
		}
	}
	JOINT Spine
	{
		OFFSET	 0.000184	 0.117403	 0.007763
		CHANNELS 3 Zrotation Xrotation Yrotation
		JOINT Spine1
		{
			OFFSET	 0.000000	 0.137269	 0.000000
			CHANNELS 3 Zrotation Xrotation Yrotation
			JOINT Spine2
			{
				OFFSET	 0.000000	 0.156879	 0.000000
				CHANNELS 3 Zrotation Xrotation Yrotation
				JOINT LeftShoulder
				{
					OFFSET	 0.080501	 0.160143	 0.002496
					CHANNELS 3 Zrotation Xrotation Yrotation
					JOINT LeftArm
					{
						OFFSET	 0.000000	 0.164363	 0.000000
						CHANNELS 3 Zrotation Xrotation Yrotation
						JOINT LeftForeArm
						{
							OFFSET	 0.000000	 0.364576	 0.000000
							CHANNELS 3 Zrotation Xrotation Yrotation
							JOINT LeftHand
							{
								OFFSET	 0.000000	 0.360812	 0.000000
								CHANNELS 3 Zrotation Xrotation Yrotation
								JOINT LeftHandIndex1
								{
									OFFSET	 0.000000	 0.086006	 0.000000
									CHANNELS 3 Zrotation Xrotation Yrotation
									JOINT LeftHandIndex2
									{
										OFFSET	 0.000000	 0.047237	 0.000000
										CHANNELS 3 Zrotation Xrotation Yrotation
										JOINT LeftHandIndex3
										{
											OFFSET	-0.004284	 0.038165	 0.000551
											CHANNELS 3 Zrotation Xrotation Yrotation
											End Site
											{
												OFFSET	-0.004284	 0.038165	 0.000551
											}
										}
									}
								}
							}
						}
					}
				}
				JOINT Neck
				{
					OFFSET	 0.000000	 0.176489	 0.000000
					CHANNELS 3 Zrotation Xrotation Yrotation
					JOINT Head
					{
						OFFSET	 0.000000	 0.077941	 0.001747
						CHANNELS 3 Zrotation Xrotation Yrotation
						End Site
						{
							OFFSET	 0.000000	 0.077941	 0.001747
						}
					}
				}
				JOINT RightShoulder
				{
					OFFSET	-0.080363	 0.159706	-0.000306
					CHANNELS 3 Zrotation Xrotation Yrotation
					JOINT RightArm
					{
						OFFSET	 0.000000	 0.164196	 0.000000
						CHANNELS 3 Zrotation Xrotation Yrotation
						JOINT RightForeArm
						{
							OFFSET	 0.000000	 0.365611	 0.000000
							CHANNELS 3 Zrotation Xrotation Yrotation
							JOINT RightHand
							{
								OFFSET	 0.000000	 0.360648	 0.000000
								CHANNELS 3 Zrotation Xrotation Yrotation
								JOINT RightHandIndex1
								{
									OFFSET	 0.000000	 0.069977	 0.000000
									CHANNELS 3 Zrotation Xrotation Yrotation
									JOINT RightHandIndex2
									{
										OFFSET	 0.000000	 0.052305	 0.000000
										CHANNELS 3 Zrotation Xrotation Yrotation
										JOINT RightHandIndex3
										{
											OFFSET	 0.009002	 0.042196	 0.000782
											CHANNELS 3 Zrotation Xrotation Yrotation
											End Site
											{
												OFFSET	 0.009002	 0.042196	 0.000782
											}
										}
									}
								}
							}
						}
					}
				}
			}
		}
	}
}
MOTION
Frames:    12
Frame Time: 0.03333334
-0.051692	 1.229518	-3.471581	-3.568670	 2.406300	-176.735600	 170.939600	 18.513320	-8.441711	 4.924334	-32.927940	 1.754128	-7.012697	 70.092980	 16.808180	 1.404734	 29.883440	-2.762261	 176.528200	 6.355166	 3.770404	-8.618461	-63.353470	 0.411311	 1.447496	 68.474850	 2.122386	-1.680088	 33.099250	 3.715448	-2.817158	 8.891025	 1.036933	-0.012044	 2.606374	 0.452820	-0.380961	-3.303980	 0.001194	-121.874700	 6.002531	 93.363830	-6.483028	 52.978890	 12.303270	 15.561820	-0.795343	 0.024810	 16.179620	-36.658770	 21.587060	 4.601970	 19.870130	-1.709273	-5.862105	 22.285050	 2.463758	 5.360723	 5.024953	-0.156777	-0.172206	-4.923822	-0.290859	-2.603816	-1.561574	-3.432372	 118.888600	 0.378684	-91.025860	 0.266859	 49.082550	-7.623617	-23.109820	-0.884727	-0.122337	-4.499412	-30.468360	-11.088190	-2.669666	 27.208110	 1.451565	 16.301850	 46.610070	-12.517210	-8.524614	 24.941270	-1.291410
-0.050237	 1.236484	-3.626846	-3.307524	 1.180969	-174.405600	 171.184200	 11.063850	-6.454282	 4.798320	-32.255610	 4.601611	-0.205733	 76.954860	 8.681357	 1.491668	 30.983010	-2.802013	 173.108500	 26.170190	 8.651078	-8.951083	-63.886240	 1.954316	 9.964368	 76.216940	-5.380719	-1.716081	 33.488030	 3.731191	-1.828774	 8.305975	-1.884979	 0.146662	 3.171526	-0.383776	-0.315039	-3.679645	-0.545711	-121.616200	 7.302389	 93.996270	 0.403438	 48.014840	 9.870934	 35.172910	-1.707320	 0.457400	 6.274809	-39.645070	 12.961700	 4.678025	 19.521070	-1.713383	-5.862549	 22.021180	 2.434502	 5.346837	 4.698832	-0.162568	-0.175787	-4.855303	-0.067198	-2.220789	-2.013059	-3.304052	 118.525900	-0.209902	-90.739140	 17.385380	 49.885790	-19.111730	-29.729380	-1.117795	-0.238159	-0.636710	-25.423600	-14.348670	-2.301760	 25.017490	 1.260205	 15.678450	 44.293530	-11.571020	-8.532682	 22.869830	-1.153227
-0.047282	 1.230560	-3.810627	-3.224749	-0.554959	-172.254400	 172.188500	 0.187842	-4.423356	 3.753020	-26.281740	 7.266884	 18.483930	 81.767600	-11.552890	 1.575752	 32.024000	-2.841896	 168.012600	 37.492760	 16.275800	-4.094814	-43.520500	 9.194623	 20.390020	 72.499870	-15.495640	-1.666733	 33.085100	 3.029850	-1.164160	 7.354609	-4.519452	 0.350816	 4.107933	-1.228984	-0.356921	-4.429239	-1.149128	-121.387000	 8.885417	 94.767380	 22.682540	 38.249790	-3.095779	 32.729620	-1.602592	 0.386760	 6.548009	-38.694290	 4.554473	 4.688159	 19.665510	-1.725221	-5.862500	 22.046250	 2.437278	 5.349044	 4.750807	-0.161631	-0.176162	-4.861887	 0.143969	-1.750459	-2.633851	-3.347317	 118.143300	-0.890236	-90.414280	 29.731060	 49.353730	-26.757700	-27.926820	-1.055699	-0.203911	-2.121304	-19.690210	-17.165590	-1.843562	 21.815700	 1.038355	 14.908490	 40.941470	-10.325660	-8.534676	 19.801290	-0.952622
-0.033930	 1.198295	-4.023468	-2.793377	-0.976529	-171.231000	 175.025500	-10.683500	-2.971443	 3.561315	-25.109630	 5.897278	 8.020626	 83.689590	-2.816851	 2.591500	 42.894350	-3.419955	 169.748000	 42.205060	 14.747450	-2.874859	-33.703650	 9.907721	 18.269590	 70.974950	-13.458830	-1.779886	 34.449760	 2.943007	-0.298776	 6.804236	-7.308712	 0.813030	 4.451570	-2.086935	-0.426103	-4.791740	-1.272418	-121.172800	 9.451584	 95.028390	 31.615000	 32.403370	-9.734548	 30.007100	-1.482412	 0.313463	 7.587046	-36.428800	 0.744325	 4.931936	 20.183820	-1.842292	-5.861623	 22.892800	 2.531327	 5.398025	 5.904491	-0.141501	-0.153354	-5.009223	 0.260583	-1.435135	-2.830851	-2.698836	 118.252800	-1.459091	-90.156160	 34.908920	 47.881290	-27.302540	-25.360200	-0.965481	-0.158708	-1.343739	-15.144140	-23.844740	-1.520644	 15.363940	 0.897290	 13.809260	 34.736100	-8.315404	-8.505235	 13.638040	-0.559338
-0.017506	 1.180337	-4.194058	-1.130732	 0.225172	-168.719900	-179.129000	-23.479060	-1.175567	 2.757049	-19.945890	 2.542787	-9.750251	 62.123110	 13.326430	 6.896555	 66.918330	-5.830576	 174.819700	 40.544040	 10.219760	-3.238395	-36.916280	 10.203890	 3.848760	 64.638040	-6.424186	-1.816836	 34.876740	 2.962360	 1.638754	 6.553106	-10.798070	 1.174751	 3.257118	-2.891786	-0.215007	-3.887208	-1.510701	-121.027600	 9.131276	 94.853280	 30.226940	 33.002860	-9.020592	 30.413340	-1.500590	 0.324025	 5.439466	-29.919990	-1.201545	 5.055824	 20.701610	-1.919029	-5.863134	 24.156860	 2.672873	 5.465406	 7.502765	-0.115188	-0.110495	-5.174614	 0.284879	-1.605837	-1.616318	-1.984634	 118.875300	-2.331081	-89.763970	 37.344090	 45.915400	-26.180880	-23.154960	-0.886430	-0.122989	-0.733725	-10.427720	-27.065220	-1.558314	 9.448470	 0.913229	 13.106640	 29.236760	-6.764521	-8.445422	 8.277813	-0.221368
-0.008192	 1.205455	-4.398072	 0.112634	 2.002735	-170.982100	-177.896500	-5.145603	-6.841287	 9.798716	-52.087600	 9.914824	-10.518780	 66.246050	 12.787910	 4.002653	 53.736170	-3.685592	-178.977000	 31.255420	 6.420029	-3.853001	-41.785700	 5.481417	-11.169480	 70.176190	 8.121274	-1.644127	 32.844510	 2.874040	 2.381572	 7.495071	-7.725387	 0.904499	 2.673626	-2.150959	-0.041188	-3.279362	-1.288911	-120.614700	 8.282569	 94.396300	 15.971860	 40.575520	-1.113866	 34.857690	-1.694006	 0.447984	-0.100380	-19.760680	 4.152826	 5.017549	 22.423330	-2.011501	-5.869979	 25.747050	 2.853080	 5.553353	 9.605222	-0.083317	-0.019127	-5.066794	 0.064934	-1.771597	-1.246311	-2.450873	 119.467900	-1.608683	-90.112390	 31.762890	 47.673310	-23.849270	-30.519570	-1.144728	-0.253682	 3.371294	-8.581697	-19.022050	-1.981582	 12.955580	 1.110281	 13.513390	 32.625650	-7.699008	-8.477509	 10.805290	-0.380683
-0.001040	 1.231352	-4.599977	 1.074850	 3.393190	-173.741500	-174.748500	 11.254860	-12.802310	 21.676330	-70.259440	 21.357230	-10.012170	 64.250560	 13.148970	 1.991963	 36.577110	-2.903111	-175.308400	 18.224050	 5.177132	-3.490598	-38.997410	 1.746728	-27.073010	 74.580220	 24.986760	-1.490582	 30.959460	 2.800235	 2.700741	 8.443720	-3.929119	 0.562755	 2.575698	-1.081256	 0.092378	-3.008538	-1.021422	-120.223300	 7.555342	 94.008540	 5.430962	 45.611740	 5.238676	 28.640760	-1.420753	 0.278891	 0.802998	-10.915930	 9.829098	 4.989249	 24.067860	-2.101890	-5.880639	 27.136440	 3.012755	 5.630628	 11.464390	-0.057697	 0.064479	-4.943274	-0.146815	-1.861015	-1.181647	-2.983101	 119.936700	-0.755782	-90.528370	 15.789600	 50.047680	-13.544400	-28.615650	-1.079606	-0.216762	 3.654259	-6.577785	-10.654490	-2.377919	 16.958140	 1.321137	 14.075600	 36.444970	-8.837083	-8.506165	 13.750000	-0.566404
-0.001437	 1.247158	-4.790170	 0.307984	 2.608383	-176.478900	-173.661700	 29.842090	-20.436300	 19.222380	-68.070820	 15.477230	-12.521660	 68.053450	 18.112920	 1.456935	 30.546570	-2.785950	-175.352300	 5.478650	 4.492973	-2.660745	-31.690020	-0.983393	-48.604530	 76.539010	 45.298650	-1.675930	 33.225730	 2.889891	 1.088085	 8.242819	 0.005460	 0.392069	 2.983413	 0.048177	-0.056821	-3.279314	-0.526686	-120.135600	 6.254958	 93.372280	-13.553000	 48.869800	 18.564550	 30.879510	-1.521216	 0.336311	-3.525755	-3.766399	 16.600460	 5.033091	 26.379970	-2.161850	-5.905336	 29.229500	 3.257839	 5.726602	 13.783130	-0.029100	 0.107930	-4.839035	-0.406923	-2.299060	-1.668458	-3.417877	 119.767100	 0.347748	-91.048100	 1.532667	 49.315630	-7.521216	-34.302460	-1.270234	-0.333514	 2.016067	-4.700142	-4.670549	-2.695050	 18.928670	 1.466359	 14.428930	 38.489280	-9.491282	-8.520384	 15.784690	-0.695300
-0.005650	 1.251118	-4.932593	-0.927549	 1.352246	-178.749900	-176.619400	 33.095240	-24.747730	 6.387095	-40.006470	 0.294656	-17.657670	 64.929980	 24.444420	 1.327315	 28.884330	-2.728170	-176.996200	-5.072485	 3.831655	-1.785318	-22.505480	-3.332262	-60.593480	 75.773850	 55.947180	-1.945358	 36.329030	 3.031522	-0.758212	 7.608307	 3.183312	 0.122116	 3.728631	 0.877403	-0.181136	-3.788276	-0.051868	-120.164900	 5.012840	 92.773490	-28.267860	 49.231800	 29.068210	 30.181550	-1.490182	 0.317973	-6.671604	 1.335425	 22.360390	 5.092865	 28.485370	-2.205201	-5.937955	 31.164860	 3.490087	 5.811268	 15.832270	-0.006932	 0.132041	-4.758841	-0.635777	-2.768741	-2.231707	-3.752325	 119.443600	 1.335408	-91.500910	-11.705250	 45.883130	-2.304134	-36.764480	-1.348993	-0.389763	-3.009905	-1.803102	-0.498805	-2.931719	 19.950620	 1.565100	 14.647750	 39.649270	-9.878734	-8.527501	 17.192550	-0.784970
-0.011826	 1.228633	-5.098999	-1.554852	 0.728868	 179.134000	 178.373200	 29.483340	-21.981090	 1.148631	-8.600112	-6.002830	-19.127290	 55.452280	 26.184890	 1.263678	 28.049130	-2.701092	-178.508200	-14.911860	 2.176126	-1.420397	-18.245220	-6.516594	-57.204410	 72.482770	 55.370350	-2.816370	 44.800830	 3.519341	-2.012878	 6.812815	 5.928337	-0.145566	 4.078000	 1.656430	-0.181958	-4.014286	 0.250033	-119.872300	 3.860780	 92.199710	-39.839570	 48.978440	 35.286270	 26.438420	-1.319838	 0.226144	-8.814799	 5.339723	 27.697720	 4.964025	 28.487690	-2.041528	-5.974835	 32.862760	 3.699005	 5.909847	 18.215200	 0.015157	 0.091722	-4.864548	-0.760011	-2.662909	-2.502314	-4.136930	 119.445800	 1.766413	-91.704920	-21.687330	 41.827720	 2.988350	-35.300800	-1.302466	-0.355865	-6.015144	 1.622139	 1.023735	-2.958037	 21.139770	 1.573787	 14.953740	 41.156680	-10.401760	-8.532744	 18.752850	-0.884975
-0.019090	 1.198405	-5.232486	-1.827831	 0.463097	 177.459500	 179.729400	 39.909390	-19.982490	 2.780889	-20.104320	-9.911302	-40.225970	 63.747640	 44.150630	 1.235110	 27.670140	-2.689218	-179.938600	-19.111200	 0.381589	-1.733598	-21.916030	-9.130965	-54.302000	 70.518400	 57.120560	-4.031882	 53.640700	 4.352428	-2.800317	 6.108485	 7.671329	-0.130308	 4.044762	 1.940475	-0.231129	-4.010092	 0.431172	-119.521600	 2.954095	 91.747820	-49.357120	 47.677900	 39.618060	 28.763220	-1.426204	 0.281911	-15.541270	 8.520095	 31.375850	 4.794168	 27.726190	-1.836328	-6.008467	 34.157120	 3.861936	 5.995378	 20.273950	 0.030986	 0.035322	-5.017857	-0.823205	-2.366785	-2.618322	-4.466281	 119.564300	 1.914097	-91.782040	-22.506990	 40.158570	 2.733337	-37.340260	-1.367056	-0.403424	-7.657270	 3.526243	 0.255543	-2.901456	 22.167320	 1.545779	 15.250280	 42.506930	-10.890770	-8.534962	 20.076760	-0.970464
-0.029871	 1.190216	-5.391759	-2.978246	 0.858900	 176.835800	 177.871200	 39.346120	-18.666650	 3.770411	-26.386770	-4.779083	-24.252330	 63.276350	 31.189830	 1.304946	 28.592180	-2.718552	 177.388100	-23.757800	-1.203590	-1.856688	-23.310410	-3.431439	-14.754890	 59.730040	 20.355240	-6.657858	 61.525930	 9.500213	-3.980313	 6.611394	 8.286851	-0.434817	 3.910458	 2.108337	-0.331134	-4.188060	 0.515985	-120.047900	 3.287380	 91.928300	-50.131410	 47.569700	 40.979150	 27.505190	-1.368893	 0.251204	-16.609030	 11.271840	 32.567860	 4.582972	 24.539470	-1.669060	-5.937666	 31.149990	 3.488285	 5.863878	 17.104990	 0.005372	-0.031357	-5.130744	-0.783360	-2.170536	-2.338634	-4.537010	 119.481200	 1.602236	-91.629340	-18.974400	 41.178830	 1.359136	-36.712140	-1.347317	-0.388518	-4.961398	 7.134177	-1.103163	-2.838851	 23.571280	 1.520934	 15.597760	 43.970180	-11.444910	-8.534947	 21.562410	-1.067221
